<svg width="151" height="85" viewBox="0 0 151 85" fill="none" xmlns="http://www.w3.org/2000/svg">
<path d="M63.6598 37.6863L63.8621 39.8464C63.8621 40.0716 63.7441 40.2511 63.5081 40.387C63.2721 40.5218 63.0747 40.5893 62.9171 40.5893C62.6017 40.5893 62.3261 40.3364 62.0901 39.8296C61.8541 39.3237 61.7361 38.8566 61.7361 38.4291C61.7361 36.7639 62.3152 35.3525 63.4744 34.1931C64.6325 33.0347 66.1011 32.1629 67.8781 31.5767C67.8781 30.8121 68.0407 30.0861 68.3679 29.3997C68.6941 28.7134 69.2058 28.3702 69.9039 28.3702C70.1964 28.3702 70.3422 28.7868 70.3422 29.6189V31.0362C71.0621 30.9469 71.5906 30.9013 71.9287 30.9013C74.9204 30.9013 77.2893 31.7404 79.0326 33.4165C80.7758 35.0937 81.6484 37.2033 81.6484 39.7453C81.6484 41.5007 81.3331 43.0529 80.7034 44.4038C80.0738 45.7536 79.218 46.8228 78.1381 47.6103C75.9784 49.1853 73.3904 49.9727 70.3759 49.9727H69.6669C69.5995 50.6254 69.5092 50.9517 69.3972 50.9517C68.3392 50.9517 67.6312 50.8049 67.2712 50.5133C67.1135 50.3556 67.0233 50.0858 67.0015 49.703C64.9984 49.1406 63.9979 48.5217 63.9979 47.8463C63.9979 47.6222 64.0763 47.4466 64.2339 47.3236C64.3906 47.1997 64.5651 47.1382 64.7575 47.1382C64.9499 47.1382 65.6965 47.4079 67.0015 47.9485C67.2038 42.0532 67.4626 36.99 67.7779 32.759C66.5404 33.1864 65.5448 33.8281 64.7912 34.6831C64.0376 35.539 63.6608 36.5397 63.6608 37.6873L63.6598 37.6863ZM71.0165 32.2175C70.7011 32.2175 70.4651 32.2294 70.3075 32.2512C70.2172 36.1896 70.1052 39.4973 69.9703 42.1752C69.8573 45.6634 69.779 47.8572 69.7343 48.7578C70.1845 48.8252 70.6565 48.859 71.1513 48.859C73.2882 48.859 75.1445 48.0655 76.7202 46.4796C78.2948 44.8927 79.0822 42.9409 79.0822 40.623C79.0822 38.3052 78.3285 36.3255 76.8213 34.6821C75.3141 33.0397 73.3795 32.2175 71.0165 32.2175Z" fill="#513625"/>
<path d="M85.3263 49.9728C84.4487 49.9728 83.7853 49.7932 83.3351 49.4322C83.1775 49.2755 83.0991 48.7122 83.0991 47.7442C83.0991 46.7762 83.1715 45.1615 83.3183 42.9002C83.464 40.6389 83.5939 39.418 83.706 39.2375C83.818 39.0579 84.1671 38.7197 84.7521 38.2248C85.3372 37.7299 85.7923 37.482 86.1185 37.482C86.4448 37.482 86.6074 37.9094 86.6074 38.7644C86.6074 38.9895 86.5449 39.4289 86.422 40.0805C86.298 40.7331 86.1572 41.2062 86.0005 41.4978C85.708 42.2406 85.5623 44.1876 85.5623 47.3375C85.5623 47.9455 85.6297 48.249 85.7645 48.249C86.1473 48.2272 86.6758 47.7481 87.3511 46.8149C88.0264 45.8816 88.6947 44.6835 89.3591 43.2196C90.0225 41.7566 90.4271 41.0257 90.5738 41.0257C90.7206 41.0257 90.7929 41.1159 90.7929 41.2955C90.7929 41.9253 90.4667 42.927 89.8142 44.2996C88.0363 48.0804 86.541 49.9708 85.3253 49.9708L85.3263 49.9728ZM84.3475 33.2975C84.3475 32.8929 84.5607 32.5438 84.9891 32.2512C85.4165 31.9586 85.7993 31.8128 86.1364 31.8128C86.7433 31.8128 87.0477 32.1619 87.0477 32.8592C87.0477 33.5564 86.8672 34.1584 86.5073 34.6652C86.1473 35.172 85.6406 35.425 84.9881 35.425C84.5607 35.425 84.3466 34.7158 84.3466 33.2985L84.3475 33.2975Z" fill="#513625"/>
<path d="M90.0502 39.3059C90.2971 39.0133 90.6917 38.6364 91.2312 38.1753C91.7716 37.7141 92.198 37.483 92.5133 37.483C92.8286 37.483 92.9853 37.9273 92.9853 38.816C92.9853 39.7046 92.7493 40.5774 92.2763 41.4323C92.1861 41.837 92.1187 42.4232 92.074 43.1878C92.7265 41.4105 93.379 40.0716 94.0315 39.171C94.6839 38.2715 95.4772 37.8212 96.4103 37.8212C97.3434 37.8212 98.1595 38.2427 98.8576 39.0867C99.5547 39.9307 99.9037 41.2588 99.9037 43.0698C99.9037 44.8808 99.3921 46.4846 98.3677 47.8801C97.3434 49.2755 95.9998 49.9728 94.3349 49.9728C93.4791 49.9728 92.6135 49.6584 91.7359 49.0276C91.7359 53.3261 91.488 56.6 90.9932 58.8504C90.9476 59.0527 90.6501 59.3959 90.0988 59.8799C89.5474 60.3639 89.1419 60.6059 88.8841 60.6059C88.6262 60.6059 88.4398 60.4254 88.3268 60.0654C88.2147 59.7054 88.1582 59.3672 88.1582 59.0527C88.1582 56.7349 88.6302 53.7535 89.5752 50.1077C89.7319 47.9921 89.84 45.6743 89.8955 43.1541C89.951 40.6339 90.0016 39.3515 90.0472 39.3059H90.0502ZM94.5392 48.7578C95.1916 48.7578 95.8659 48.3026 96.564 47.3911C97.2611 46.4796 97.6101 45.3549 97.6101 44.016C97.6101 42.6771 97.4247 41.6079 97.0529 40.8095C96.682 40.0111 96.1812 39.6114 95.5516 39.6114C94.4717 39.6114 93.2451 41.8509 91.8727 46.3289C91.8271 46.9587 91.8053 47.4546 91.8053 47.8136C92.435 48.4434 93.3463 48.7588 94.5392 48.7588V48.7578Z" fill="#513625"/>
<path d="M104.089 40.994L105.946 40.7916C106.125 40.7916 106.283 40.8928 106.418 41.0951C106.553 41.2974 106.62 41.5117 106.62 41.7368C106.62 41.962 106.547 42.7276 106.401 44.0319C106.254 45.3371 106.182 46.3666 106.182 47.1203C106.182 47.8741 106.249 48.251 106.384 48.251C106.767 48.2292 107.295 47.7501 107.971 46.8168C108.646 45.8836 109.315 44.6855 109.979 43.2216C110.642 41.7586 111.047 41.0277 111.193 41.0277C111.34 41.0277 111.412 41.1179 111.412 41.2974C111.412 41.9272 111.086 42.929 110.434 44.3016C108.656 48.0824 107.16 49.9728 105.945 49.9728C105.067 49.9728 104.404 49.7933 103.954 49.4322C103.796 49.2755 103.718 48.2966 103.718 46.4955C103.718 44.6944 103.909 43.1541 104.292 41.8707C102.987 41.8707 102.076 41.4542 101.558 40.622C101.288 40.1946 101.153 39.7106 101.153 39.171C101.153 38.6315 101.265 38.1584 101.49 37.7537C101.716 37.3491 102.036 37.1458 102.452 37.1458C102.869 37.1458 103.251 37.3649 103.6 37.8043C103.949 38.2427 104.123 38.7326 104.123 39.2732C104.123 39.8137 103.966 40.3533 103.651 40.8938C103.74 40.9612 103.887 40.9949 104.089 40.9949V40.994Z" fill="#513625"/>
<path d="M119.242 49.9727C118.364 49.9727 117.701 49.7932 117.251 49.4322C117.093 49.2755 117.015 48.8748 117.015 48.2341C117.015 47.5934 117.037 46.7325 117.082 45.6514C116.497 47.1144 115.918 48.2004 115.344 48.9085C114.77 49.6177 114.033 49.9717 113.134 49.9717C112.234 49.9717 111.446 49.5502 110.772 48.7062C110.096 47.8622 109.759 46.5351 109.759 44.7231C109.759 42.9111 110.271 41.3083 111.295 39.9129C112.319 38.5174 113.663 37.8201 115.328 37.8201C116.048 37.8201 116.858 38.2922 117.758 39.2374C117.937 38.9905 118.258 38.6919 118.719 38.3428C119.18 37.9937 119.574 37.8192 119.9 37.8192C120.227 37.8192 120.389 38.2466 120.389 39.1016C120.389 39.3267 120.327 39.7661 120.204 40.4177C120.08 41.0703 119.939 41.5434 119.782 41.835C119.58 42.3527 119.479 44.1865 119.479 47.3375C119.479 47.9455 119.546 48.249 119.681 48.249C120.064 48.2272 120.593 47.7481 121.268 46.8148C121.943 45.8815 122.611 44.6834 123.276 43.2195C123.939 41.7566 124.344 41.0257 124.49 41.0257C124.637 41.0257 124.71 41.1159 124.71 41.2954C124.71 41.9252 124.383 42.9269 123.731 44.2996C121.953 48.0804 120.458 49.9707 119.242 49.9707V49.9727ZM115.125 39.171C114.495 39.171 113.826 39.6381 113.117 40.5714C112.408 41.5057 112.054 42.6026 112.054 43.8622C112.054 45.1218 112.239 46.1573 112.611 46.9676C112.982 47.7779 113.472 48.1825 114.08 48.1825C114.822 48.1825 115.913 46.3259 117.353 42.6125C117.375 42.433 117.404 42.1226 117.437 41.6842C117.471 41.2458 117.499 40.9136 117.522 40.6884C117.319 40.3284 116.964 39.9853 116.459 39.659C115.952 39.3326 115.508 39.169 115.126 39.169L115.125 39.171Z" fill="#513625"/>
<path d="M124.911 49.9728C124.033 49.9728 123.37 49.7932 122.92 49.4322C122.762 49.2755 122.684 48.7122 122.684 47.7442C122.684 46.7762 122.756 45.1615 122.903 42.9002C123.049 40.6389 123.179 39.418 123.291 39.2375C123.403 39.0579 123.752 38.7197 124.337 38.2248C124.922 37.7299 125.377 37.482 125.703 37.482C126.03 37.482 126.192 37.9094 126.192 38.7644C126.192 38.9895 126.13 39.4289 126.007 40.0805C125.883 40.7331 125.742 41.2062 125.585 41.4978C125.293 42.2406 125.147 44.1876 125.147 47.3375C125.147 47.9455 125.214 48.249 125.349 48.249C125.732 48.2272 126.261 47.7481 126.936 46.8149C127.611 45.8816 128.28 44.6835 128.944 43.2196C129.607 41.7566 130.012 41.0257 130.159 41.0257C130.305 41.0257 130.378 41.1159 130.378 41.2955C130.378 41.9253 130.051 42.927 129.399 44.2996C127.621 48.0804 126.126 49.9708 124.91 49.9708L124.911 49.9728ZM123.932 33.2975C123.932 32.8929 124.145 32.5438 124.574 32.2512C125.001 31.9586 125.384 31.8128 125.721 31.8128C126.329 31.8128 126.632 32.1619 126.632 32.8592C126.632 33.5564 126.452 34.1584 126.092 34.6652C125.732 35.172 125.225 35.425 124.573 35.425C124.145 35.425 123.931 34.7158 123.931 33.2985L123.932 33.2975Z" fill="#513625"/>
<path d="M138.073 49.9727C137.195 49.9727 136.532 49.7932 136.081 49.4322C135.924 49.2755 135.845 48.8748 135.845 48.2341C135.845 47.5934 135.867 46.7325 135.913 45.6514C135.328 47.1144 134.749 48.2004 134.175 48.9085C133.6 49.6177 132.864 49.9717 131.964 49.9717C131.065 49.9717 130.277 49.5502 129.602 48.7062C128.927 47.8622 128.59 46.5351 128.59 44.7231C128.59 42.9111 129.102 41.3083 130.126 39.9129C131.149 38.5174 132.494 37.8201 134.159 37.8201C134.879 37.8201 135.689 38.2922 136.588 39.2374C136.768 38.9905 137.089 38.6919 137.55 38.3428C138.011 37.9937 138.405 37.8192 138.731 37.8192C139.057 37.8192 139.221 38.2466 139.221 39.1016C139.221 39.3267 139.158 39.7661 139.035 40.4177C138.911 41.0703 138.771 41.5434 138.614 41.835C138.412 42.3527 138.311 44.1865 138.311 47.3375C138.311 47.9455 138.378 48.249 138.513 48.249C138.896 48.2272 139.424 47.7481 140.099 46.8148C140.775 45.8815 141.444 44.6834 142.107 43.2195C142.771 41.7566 143.175 41.0257 143.322 41.0257C143.469 41.0257 143.541 41.1159 143.541 41.2954C143.541 41.9252 143.215 42.9269 142.562 44.2996C140.785 48.0804 139.289 49.9707 138.074 49.9707L138.073 49.9727ZM133.955 39.171C133.326 39.171 132.656 39.6381 131.947 40.5714C131.238 41.5057 130.884 42.6026 130.884 43.8622C130.884 45.1218 131.07 46.1573 131.442 46.9676C131.813 47.7779 132.302 48.1825 132.909 48.1825C133.652 48.1825 134.743 46.3259 136.183 42.6125C136.204 42.433 136.233 42.1226 136.267 41.6842C136.301 41.2458 136.328 40.9136 136.351 40.6884C136.149 40.3284 135.794 39.9853 135.288 39.659C134.781 39.3326 134.337 39.169 133.955 39.169V39.171Z" fill="#513625"/>
<path d="M121.201 60.0455C120.813 60.0455 120.509 59.9602 120.292 59.7886C120.201 59.6974 120.155 59.4574 120.155 59.0686C120.155 58.6798 120.172 58.171 120.207 57.5422C119.898 58.3654 119.583 58.9892 119.264 59.4118C118.943 59.8353 118.541 60.0465 118.055 60.0465C117.569 60.0465 117.158 59.8353 116.82 59.4118C116.483 58.9892 116.315 58.3138 116.315 57.3875C116.315 56.4611 116.574 55.6439 117.095 54.9347C117.616 54.2256 118.298 53.8715 119.145 53.8715C119.556 53.8715 119.985 54.0322 120.431 54.3516C120.613 52.122 120.78 50.8634 120.929 50.5777C120.997 50.4518 121.161 50.2693 121.417 50.0293C121.674 49.7893 121.889 49.6693 122.061 49.6693C122.233 49.6693 122.318 49.938 122.318 50.4756C122.318 51.1044 122.26 51.6479 122.146 52.1051C121.838 53.2834 121.643 54.0322 121.563 54.3526C121.403 55.5874 121.323 57.0403 121.323 58.7096C121.323 59.018 121.358 59.1727 121.426 59.1727C121.633 59.1618 121.906 58.9208 122.249 58.4527C122.593 57.9836 122.933 57.3746 123.27 56.6258C123.607 55.877 123.812 55.5021 123.888 55.5021C123.963 55.5021 123.999 55.5477 123.999 55.6389C123.999 55.9593 123.833 56.4681 123.501 57.1653C122.597 59.0864 121.831 60.0475 121.202 60.0475L121.201 60.0455ZM119.041 54.4874C118.732 54.4874 118.423 54.7334 118.114 55.2253C117.806 55.7173 117.651 56.2866 117.651 56.9322C117.651 57.5779 117.734 58.1075 117.9 58.5191C118.066 58.9307 118.275 59.137 118.526 59.137C119.041 59.137 119.63 58.1075 120.292 56.0495C120.35 55.4207 120.378 55.0488 120.378 54.9347C120.046 54.6372 119.601 54.4884 119.041 54.4884V54.4874Z" fill="#513625"/>
<path d="M128.439 56.237C128.896 56.0882 129.214 55.9603 129.391 55.8512C129.569 55.7431 129.702 55.6597 129.794 55.6022L130 55.4822C130.057 55.4475 130.103 55.4306 130.137 55.4306C130.228 55.4306 130.274 55.4822 130.274 55.5854C130.274 55.6885 130.096 55.868 129.742 56.1259C129.387 56.3828 128.947 56.6149 128.421 56.8202C128.341 57.7812 128.038 58.5588 127.512 59.1529C126.986 59.748 126.237 60.0445 125.265 60.0445C124.556 60.0445 124.014 59.7618 123.636 59.1955C123.258 58.6292 123.07 57.9667 123.07 57.206C123.07 56.4453 123.296 55.7282 123.747 55.0528C124.198 54.3783 124.778 54.0401 125.487 54.0401C125.807 53.812 126.187 53.697 126.627 53.697C127.068 53.697 127.476 53.932 127.854 54.4001C128.231 54.8693 128.425 55.4812 128.437 56.236L128.439 56.237ZM127.325 57.1117L126.707 57.1465C126.181 57.1465 125.735 56.9898 125.369 56.6744C125.003 56.36 124.821 56.0138 124.821 55.6369C124.821 55.26 124.883 54.9337 125.009 54.659C124.517 55.0478 124.271 55.8145 124.271 56.958C124.271 57.5075 124.385 58.0302 124.614 58.528C124.843 59.0259 125.204 59.2739 125.695 59.2739C126.187 59.2739 126.57 59.0656 126.845 58.6481C127.119 58.2305 127.279 57.7187 127.325 57.1127V57.1117ZM126.262 54.2643C126.078 54.2643 125.935 54.3476 125.833 54.5132C125.73 54.6788 125.678 54.8594 125.678 55.0537C125.678 55.4772 125.824 55.8204 126.116 56.0832C126.407 56.3461 126.747 56.478 127.136 56.478H127.342C127.32 55.9176 127.225 55.4088 127.06 54.9516C126.894 54.4944 126.628 54.2653 126.263 54.2653L126.262 54.2643Z" fill="#513625"/>
<path d="M132.384 55.7907L132.521 54.9159C132.521 54.79 132.481 54.6759 132.401 54.5728C132.32 54.4696 132.217 54.418 132.092 54.418C131.669 54.418 131.303 54.7354 130.994 55.3702C130.686 56.0049 130.531 56.6139 130.531 57.1971C130.531 57.7803 130.651 58.2524 130.891 58.6124C131.131 58.9724 131.426 59.1529 131.775 59.1529C132.124 59.1529 132.435 59.0726 132.71 58.9129C132.985 58.7532 133.236 58.5241 133.465 58.2266C133.944 57.5978 134.356 56.8827 134.699 56.0823C134.79 55.876 134.862 55.7282 134.913 55.636C134.965 55.5447 135.022 55.4991 135.085 55.4991C135.147 55.4991 135.179 55.5447 135.179 55.636C135.179 56.0139 135.047 56.4651 134.784 56.9908C134.522 57.5174 134.301 57.9201 134.124 58.1998C133.946 58.4805 133.721 58.774 133.447 59.0835C132.875 59.7242 132.161 60.0445 131.303 60.0445C130.651 60.0445 130.157 59.8135 129.819 59.3503C129.482 58.8871 129.314 58.3922 129.314 57.8665C129.314 56.5633 129.596 55.5705 130.163 54.8901C130.729 54.2098 131.446 53.8696 132.315 53.8696C132.681 53.8696 132.97 53.9638 133.181 54.1522C133.392 54.3407 133.498 54.5549 133.498 54.7959C133.498 55.2422 133.418 55.5735 133.258 55.7907C133.098 56.0079 132.903 56.117 132.675 56.117C132.481 56.117 132.384 56.0089 132.384 55.7907Z" fill="#513625"/>
<path d="M136.312 60.0455C135.671 60.0455 135.162 59.8025 134.785 59.3166C134.409 58.8306 134.219 58.2791 134.219 57.6612C134.219 56.4145 134.482 55.4713 135.009 54.8306C135.534 54.1899 136.214 53.8696 137.049 53.8696C137.438 53.8696 137.758 53.9757 138.01 54.1869C138.262 54.3982 138.387 54.6868 138.387 55.0528C138.387 55.7391 138.098 56.3134 137.521 56.7765C136.944 57.2397 136.238 57.4827 135.403 57.5055C135.449 57.9518 135.601 58.3377 135.857 58.663C136.114 58.9883 136.415 59.1519 136.758 59.1519C137.101 59.1519 137.409 59.0716 137.684 58.9119C137.959 58.7522 138.209 58.5231 138.438 58.2256C138.918 57.5968 139.33 56.8817 139.673 56.0813C139.764 55.875 139.836 55.7272 139.887 55.635C139.939 55.5437 139.996 55.4981 140.059 55.4981C140.121 55.4981 140.153 55.5437 140.153 55.635C140.153 56.2073 139.804 57.0652 139.107 58.2077C138.352 59.4316 137.42 60.0436 136.312 60.0436V60.0455ZM135.402 57.0949C136.076 56.9809 136.571 56.7637 136.886 56.4433C137.2 56.123 137.358 55.7054 137.358 55.1907C137.358 54.6759 137.192 54.419 136.86 54.419C136.459 54.419 136.122 54.6967 135.847 55.2512C135.573 55.8056 135.424 56.4205 135.401 57.0949H135.402Z" fill="#513625"/>
<path d="M141.782 54.7106L141.817 54.4537C141.817 54.2474 141.7 54.1453 141.466 54.1453C141.232 54.1453 141.006 54.297 140.789 54.5995C140.571 54.903 140.462 55.151 140.462 55.3454C140.462 55.5397 140.473 55.6945 140.497 55.8085C140.52 55.9226 140.546 56.0178 140.574 56.0912C140.603 56.1656 140.652 56.2538 140.72 56.357C140.789 56.4601 140.84 56.5345 140.875 56.5801L141.063 56.8202C141.144 56.9342 141.2 57.0086 141.235 57.0433C141.829 56.5514 142.538 56.0029 143.362 55.3969C143.407 55.3622 143.459 55.3454 143.516 55.3454C143.63 55.3454 143.688 55.4088 143.688 55.5338C143.688 55.6588 143.636 55.7569 143.533 55.8254C142.801 56.2945 142.11 56.8033 141.458 57.3518C141.709 57.7177 141.835 58.1184 141.835 58.5528C141.835 58.9873 141.669 59.3592 141.337 59.6676C141.005 59.9761 140.582 60.1308 140.068 60.1308C139.553 60.1308 139.296 59.8848 139.296 59.3929C139.296 59.0388 139.673 58.4953 140.429 57.7634C140.371 57.6949 140.268 57.5829 140.12 57.4291C139.971 57.2744 139.86 57.1524 139.786 57.0602C139.712 56.9689 139.623 56.8489 139.52 56.7002C139.337 56.4145 139.246 56.1061 139.246 55.7738C139.246 55.0994 139.463 54.5529 139.897 54.1354C140.331 53.7178 140.794 53.5095 141.286 53.5095C141.595 53.5095 141.836 53.5928 142.006 53.7585C142.178 53.9241 142.263 54.0927 142.263 54.2643C142.263 54.6531 142.172 54.8475 141.988 54.8475C141.852 54.8475 141.782 54.8018 141.782 54.7106ZM140.684 58.0897C140.227 58.5469 139.998 58.9159 139.998 59.1965C139.998 59.4772 140.141 59.6171 140.427 59.6171C140.598 59.6171 140.741 59.5486 140.855 59.4108C141.106 59.0676 141.049 58.6272 140.683 58.0897H140.684Z" fill="#513625"/>
<path d="M40.0507 29.614C39.0383 29.9036 38.4642 29.5812 37.889 28.8324C36.9589 27.6204 36.0913 27.6532 35.1701 28.9019C35.0213 29.1032 34.8954 29.3234 34.7417 29.5207C34.0634 30.3925 33.3624 30.3489 32.8101 29.4007C32.6841 29.1845 32.5889 28.9495 32.4561 28.7372C31.759 27.6204 30.5175 27.558 29.7123 28.5984C29.5814 28.767 29.4961 28.9723 29.3623 29.1379C29.1064 29.4573 28.797 29.6933 28.3498 29.615C27.8729 29.5307 27.735 29.1478 27.6607 28.7551C27.5417 28.1193 27.3751 27.4766 26.5788 27.551C25.7647 27.6274 25.6626 28.3167 25.5852 28.9911C25.5386 29.4017 25.6428 29.847 25.1965 30.5195C25.1965 29.4533 25.1549 28.6807 25.2045 27.915C25.3393 25.8431 27.3225 24.409 29.513 24.767C30.6791 24.9574 31.8452 25.1548 33.0113 25.3482C33.4367 25.3333 33.8572 25.6547 34.2865 25.369C35.4903 25.1895 36.714 25.0903 37.895 24.8126C40.1548 24.281 42.847 26.0296 42.3284 28.7997C42.1906 29.5346 42.1093 30.2805 41.9576 31.3328C41.5143 30.1208 41.7711 29.121 41.5272 28.0717C41.5272 28.0717 40.9501 29.3561 40.0497 29.615L40.0507 29.614Z" fill="#FF5072"/>
<path d="M14.8642 59.9255C15.469 57.7743 14.6381 53.6176 14.3099 51.5249C13.7199 47.761 15.2945 45.1902 18.7334 44.3512C19.8717 44.0735 21.017 44.1816 22.1594 44.3492C25.5368 44.8451 28.932 45.1684 32.3411 45.3043C35.543 45.4313 38.5684 44.4166 41.6404 43.7214C43.6642 43.2632 45.6573 42.6254 47.7694 42.677C51.131 42.7593 52.9763 44.9125 52.5916 48.3918C52.2445 48.0744 52.5152 47.5587 52.1464 47.3355C50.9723 48.8946 49.7715 49.0523 48.178 47.8294C47.7813 47.525 47.4095 47.1957 46.9236 47.0152C45.8844 46.6294 45.223 46.8238 44.6271 47.7511C44.2413 48.3521 43.9528 49.0156 43.4084 49.5135C42.5764 50.2742 41.6056 50.4111 40.6587 49.7942C40.0905 49.4243 39.6006 48.9343 39.0443 48.5425C37.1712 47.2254 35.3873 47.9544 35.0065 50.1999C34.9104 50.7652 34.8776 51.3424 34.6317 51.8681C34.3888 52.3878 34.011 52.7409 33.3883 52.7379C32.7844 52.7349 32.4661 52.3392 32.2965 51.8532C32.0853 51.2482 31.9752 50.6085 31.8047 49.9896C31.6539 49.4431 31.3713 48.9621 30.7744 48.8609C30.1943 48.7627 29.7094 49.0742 29.3911 49.5264C29.0222 50.0501 28.7545 50.6432 28.4243 51.1966C28.0029 51.9038 27.4753 52.4919 26.5591 52.4294C25.6379 52.366 25.0618 51.8284 24.7227 50.9913C24.4807 50.3962 24.2348 49.8002 23.9413 49.2299C23.5922 48.5515 23.0687 48.0913 22.2397 48.1438C21.4008 48.1974 20.9794 48.7459 20.7235 49.4649C20.4132 50.3397 20.2367 51.2621 19.718 52.0605C18.5351 53.8824 17.4304 53.9211 15.5166 52.1111C15.5166 54.0014 16.0977 55.7807 15.5037 57.7019C15.3332 58.2543 14.8681 59.9275 14.8681 59.9275L14.8642 59.9255Z" fill="#FF5072"/>
<path d="M36.0933 39.8276C35.9247 39.2126 35.7571 38.6285 35.0858 38.4192C34.4145 38.2099 33.9108 38.5759 33.4566 39.0123C33.0173 39.4348 32.6296 39.9238 32.1437 40.2818C31.1789 40.9929 30.3955 40.7202 29.9572 39.6163C29.7034 38.9756 29.7282 38.0721 28.8486 37.9223C27.9274 37.7646 27.6002 38.6027 27.1629 39.1948C26.2596 40.4177 25.3661 40.374 24.6026 39.0629C24.3864 38.6919 24.205 38.2932 23.9432 37.957C23.5376 37.4343 22.9675 37.2201 22.3229 37.4076C21.6496 37.6039 21.5366 38.1772 21.5356 38.7842C21.5326 39.9327 21.5356 41.0802 21.5356 42.3388C21.0586 41.7239 21.1409 41.0286 20.9733 40.4216C20.783 39.7343 20.7165 39.0123 20.5807 38.3091C19.952 35.057 22.7424 32.5695 25.9194 33.5901C27.9721 34.2496 30.0465 34.807 32.1854 35.0768C35.0551 35.4378 37.8306 34.9538 40.5545 34.0592C41.8604 33.6308 43.1783 33.3094 44.5576 33.7488C46.1035 34.2407 46.9047 35.2662 46.8016 36.867C46.7074 38.3329 46.4823 39.7909 46.2929 41.4432C45.922 40.2282 46.0232 39.1492 45.9151 37.9173C45.6444 38.3061 45.4599 38.5818 45.2646 38.8486C44.4078 40.02 43.3379 40.0299 42.4484 38.8695C42.2739 38.6423 42.1401 38.3855 41.9685 38.1564C41.7077 37.8082 41.4192 37.4244 40.9303 37.5186C40.3661 37.6267 40.1578 38.1038 40.0309 38.6156C39.8524 39.3376 40.2144 40.0329 40.1271 40.7529C40.0091 41.7249 39.4905 42.3785 38.5326 42.5282C37.7373 42.6522 36.9738 42.4985 36.6605 41.5731" fill="#FF5072"/>
<path d="M34.2609 25.4226C33.8306 25.7073 33.4111 25.3859 32.9857 25.4018C32.4195 24.7393 31.9634 24.0371 32.721 23.2426C33.2485 22.6892 33.9803 22.7041 34.4731 23.1702C35.2694 23.923 34.8598 24.7175 34.2619 25.4236L34.2609 25.4226Z" fill="#FF5072"/>
<path d="M7.31711 53.5036C7.14854 53.1376 13.234 64.4144 31.2087 58.662C37.1821 56.7498 46.3515 51.5428 51.7676 51.765C56.9467 51.9782 58.9032 54.8346 59.4456 56.5226C59.8858 57.8923 58.8774 60.2717 58.8774 60.2717C58.8774 60.2717 59.6726 57.4311 57.3959 55.1331C56.3567 54.0848 53.2372 53.1912 51.7686 53.3459C46.3703 53.9132 36.5703 59.2253 31.3793 60.8102C23.0984 63.3403 11.7397 63.1122 7.31711 53.5036Z" fill="#FF5072"/>
</svg>
