<svg width="250" height="250" viewBox="0 0 250 250" fill="none" xmlns="http://www.w3.org/2000/svg">
<path d="M155.302 66.7503C150.715 68.062 148.114 66.602 145.509 63.2104C141.295 57.721 137.364 57.8692 133.191 63.5249C132.517 64.4368 131.947 65.4341 131.251 66.328C128.178 70.2766 125.002 70.079 122.5 65.7844C121.929 64.8052 121.498 63.7405 120.896 62.7792C117.738 57.721 112.114 57.438 108.466 62.1503C107.873 62.914 107.487 63.8438 106.881 64.594C105.722 66.0405 104.32 67.1096 102.294 66.7548C100.133 66.3729 99.5089 64.6389 99.172 62.86C98.6329 59.9806 97.8782 57.0696 94.271 57.4066C90.583 57.7525 90.1203 60.8745 89.7699 63.9292C89.5588 65.7889 90.0304 67.8059 88.0089 70.8516C88.0089 66.0225 87.8203 62.5231 88.0449 59.0552C88.6558 49.671 97.6402 43.1754 107.563 44.797C112.846 45.6595 118.129 46.5535 123.412 47.4295C125.339 47.3621 127.244 48.8175 129.189 47.5238C134.642 46.7107 140.185 46.2615 145.536 45.0037C155.773 42.5959 167.97 50.5156 165.62 63.0622C164.996 66.3909 164.627 69.769 163.94 74.5352C161.932 69.0458 163.096 64.5177 161.99 59.7649C161.99 59.7649 159.376 65.5823 155.297 66.7548L155.302 66.7503Z" fill="#FF5072"/>
<path d="M41.2009 204.044C43.9411 194.301 40.1767 175.474 38.6898 165.996C36.0169 148.948 43.1505 137.304 58.7293 133.504C63.8863 132.246 69.0748 132.736 74.2498 133.495C89.5501 135.741 104.931 137.205 120.375 137.821C134.881 138.396 148.586 133.8 162.503 130.651C171.671 128.576 180.701 125.687 190.269 125.921C205.497 126.294 213.857 136.046 212.114 151.805C210.542 150.367 211.768 148.031 210.097 147.021C204.779 154.082 199.339 154.797 192.12 149.258C190.323 147.879 188.638 146.387 186.437 145.57C181.729 143.822 178.733 144.703 176.033 148.903C174.286 151.625 172.979 154.63 170.512 156.886C166.743 160.331 162.346 160.951 158.056 158.157C155.482 156.481 153.262 154.262 150.742 152.488C142.257 146.522 134.175 149.824 132.45 159.994C132.015 162.555 131.866 165.169 130.752 167.55C129.652 169.904 127.94 171.503 125.119 171.49C122.383 171.476 120.941 169.684 120.173 167.483C119.216 164.742 118.718 161.845 117.945 159.042C117.262 156.567 115.982 154.388 113.278 153.93C110.65 153.485 108.453 154.896 107.011 156.944C105.34 159.316 104.127 162.002 102.631 164.509C100.722 167.712 98.3323 170.376 94.1815 170.093C90.0083 169.805 87.3983 167.37 85.862 163.579C84.7659 160.884 83.6519 158.184 82.3222 155.601C80.7409 152.528 78.3691 150.444 74.6136 150.682C70.8132 150.924 68.9041 153.409 67.7451 156.665C66.3391 160.628 65.5394 164.805 63.19 168.421C57.8309 176.674 52.8266 176.849 44.1567 168.651C44.1567 177.213 46.7891 185.272 44.0983 193.973C43.3257 196.475 41.2189 204.053 41.2189 204.053L41.2009 204.044Z" fill="#FF5072"/>
<path d="M137.378 113.01C136.615 110.225 135.855 107.579 132.814 106.632C129.773 105.684 127.491 107.341 125.434 109.318C123.444 111.232 121.687 113.446 119.486 115.068C115.115 118.289 111.566 117.053 109.581 112.054C108.431 109.152 108.543 105.059 104.559 104.381C100.385 103.667 98.9029 107.463 96.9219 110.144C92.8295 115.683 88.7821 115.486 85.3231 109.547C84.3438 107.867 83.5217 106.061 82.3358 104.538C80.4985 102.171 77.9155 101.201 74.9956 102.05C71.9454 102.939 71.4333 105.536 71.4288 108.285C71.4154 113.487 71.4288 118.684 71.4288 124.385C69.2681 121.6 69.641 118.451 68.8818 115.701C68.0193 112.588 67.7183 109.318 67.1029 106.133C64.2548 91.4032 76.8958 80.1368 91.2887 84.7593C100.587 87.7466 109.985 90.2712 119.675 91.493C132.675 93.1282 145.249 90.936 157.589 86.8841C163.505 84.9434 169.475 83.488 175.723 85.478C182.727 87.7061 186.356 92.351 185.889 99.6014C185.462 106.241 184.443 112.844 183.585 120.328C181.905 114.825 182.363 109.938 181.873 104.359C180.647 106.12 179.811 107.368 178.926 108.577C175.045 113.882 170.198 113.927 166.169 108.671C165.378 107.642 164.772 106.479 163.994 105.441C162.813 103.864 161.506 102.126 159.291 102.553C156.735 103.042 155.792 105.203 155.217 107.521C154.408 110.791 156.048 113.94 155.652 117.202C155.118 121.604 152.768 124.564 148.429 125.243C144.826 125.804 141.367 125.108 139.948 120.917" fill="#FF5072"/>
<path d="M129.072 47.7709C127.122 49.0601 125.222 47.6046 123.295 47.6765C120.73 44.6758 118.664 41.4953 122.096 37.8971C124.485 35.3904 127.801 35.4578 130.033 37.5691C133.64 40.9787 131.785 44.5769 129.076 47.7753L129.072 47.7709Z" fill="#FF5072"/>
<path d="M7.01538 174.958C6.25171 173.3 33.8201 224.376 115.25 198.321C142.31 189.66 183.85 166.077 208.386 167.083C231.848 168.049 240.711 180.986 243.169 188.632C245.163 194.835 240.595 205.612 240.595 205.612C240.595 205.612 244.197 192.747 233.883 182.338C229.175 177.59 215.043 173.543 208.39 174.243C183.935 176.813 139.539 200.873 116.022 208.051C78.4992 219.506 27.0415 218.478 7.01089 174.958H7.01538Z" fill="#FF5072"/>
</svg>
